<?xml version="1.0" encoding="UTF-8"?>
<svg id="Layer_1" data-name="Layer 1" xmlns="http://www.w3.org/2000/svg" viewBox="0 0 192.26 136.06">
  <defs>
    <style>
      .cls-1 {
        fill: #633510;
      }

      .cls-1, .cls-2 {
        stroke-width: 0px;
      }

      .cls-2 {
        fill: #f4b223;
      }
    </style>
  </defs>
  <path class="cls-1" d="M190.92,44.12c8.67,35.17-25.48,74.38-76.28,87.58-50.8,13.21-99.02-4.6-107.69-39.76C-1.73,56.77,32.43,17.56,83.23,4.36c50.8-13.2,99.02,4.6,107.69,39.77Z"/>
  <path class="cls-2" d="M82.11,133.8c-17.75,0-33.92-3.94-46.75-11.4-13.19-7.67-21.84-18.51-25.01-31.35C1.98,57.1,34.9,19.15,83.74,6.45c10.68-2.78,21.45-4.19,32-4.19,17.75,0,33.92,3.94,46.75,11.4,13.2,7.67,21.84,18.51,25.01,31.35,8.37,33.95-24.55,71.9-73.39,84.6-10.69,2.78-21.45,4.19-32.01,4.19ZM115.75,3.98c-10.41,0-21.04,1.39-31.59,4.13C36.21,20.58,3.83,57.59,11.98,90.63c6.11,24.79,34.3,41.45,70.13,41.45,10.41,0,21.04-1.39,31.59-4.13,47.94-12.46,80.32-49.48,72.17-82.52C179.77,20.64,151.58,3.98,115.75,3.98Z"/>
  <g>
    <polygon class="cls-2" points="138.18 58.59 133 69.81 127.83 58.59 117.9 58.59 127.16 80.27 127.16 98.86 137.67 98.86 137.67 80.27 146.92 58.59 138.18 58.59"/>
    <path class="cls-1" d="M138.19,99.38h-11.55v-19.01l-9.53-22.31h11.05l4.84,10.5,4.85-10.5h9.86l-9.52,22.31v19.01ZM127.68,98.34h9.46l.04-18.27,8.95-20.95h-7.62l-5.51,11.95-5.51-11.95h-8.8l8.99,21.16v18.07Z"/>
  </g>
  <g>
    <path class="cls-2" d="M58.01,49h10.39v8.58h-10.39v-8.58ZM58.01,58.58h10.39v40.3h-10.39v-40.3Z"/>
    <path class="cls-1" d="M68.93,99.4h-11.44v-50.92h11.44v50.92ZM58.53,98.36h9.35v-39.26h-9.35v39.26ZM58.53,57.06h9.35v-7.53h-9.35v7.53Z"/>
  </g>
  <g>
    <path class="cls-2" d="M70.15,58.58h4.88v-9.6h10.08v9.6h9.53v8.72h-9.53v18.15c0,4.4,1.34,5.36,5.2,5.36l4.17,8.08h-6.14c-9.76,0-13.62-3.76-13.62-13.99v-17.59h-4.57v-8.72Z"/>
    <path class="cls-1" d="M95.34,99.4h-7c-10.18,0-14.14-4.07-14.14-14.51v-17.07h-4.57v-9.76h4.88v-9.6h11.12v9.6h9.53v9.76h-9.53v17.63c0,4.14,1.17,4.84,4.68,4.84h.32l4.71,9.12ZM70.68,66.77h4.57v18.11c0,9.82,3.55,13.47,13.1,13.47h5.29l-3.64-7.04c-4.08-.07-5.4-1.54-5.4-5.88v-18.67h9.53v-7.67h-9.53v-9.6h-9.04v9.6h-4.88v7.67Z"/>
  </g>
  <g>
    <path class="cls-2" d="M96.39,58.58h4.88v-9.6h10.08v9.6h4.66l3.69,8.69-8.35.03v18.15c0,4.4,1.34,5.36,5.2,5.36l4.17,8.08h-6.14c-9.76,0-13.62-3.76-13.62-13.99v-17.59h-4.57v-8.72Z"/>
    <path class="cls-1" d="M121.58,99.4h-7c-10.18,0-14.15-4.07-14.15-14.51v-17.07h-4.57v-9.76h4.88v-9.6h11.12v9.6h4.48l4.13,9.73-8.62.03v17.63c0,4.14,1.17,4.84,4.67,4.84h.32l4.71,9.12ZM96.91,66.77h4.57v18.11c0,9.82,3.55,13.47,13.1,13.47h5.29l-3.64-7.04c-4.08-.07-5.4-1.54-5.4-5.88v-18.67l8.08-.03-3.25-7.65h-4.84v-9.6h-9.04v9.6h-4.88v7.67Z"/>
  </g>
  <g>
    <path class="cls-2" d="M163.5,30.84c.77-2.3,2.85-2.52,4.73-2.99,1.33-.33,2.49-1.59,1.51-3.3-.15,1.09-1.19,1.67-1.78,2.03-.72.44-1.85.67-2.59,1.05-1.33.67-1.85,1.6-2.02,3.19-.01.1.12.1.15.02"/>
    <path class="cls-2" d="M165.6,30.18c.78-1.38,2.06-.97,3.45-1.15.99-.13,1.93-.94,1.36-2.26-.2.77-1,1.11-1.46,1.32-.55.25-1.37.38-1.96.54-1.04.27-1.25.39-1.51,1.53-.02.07.07.08.11.03"/>
    <path class="cls-2" d="M169.69,32.01c-.09.92-.48,1.86-1.2,2.78-.94,1.2-2.28,2.28-4.01,3.21-1,.54-2.36,1.09-4.03,1.61,0,.01,0,.03,0,.04-.01.52.13.89.46,1.18.06.05.12.09.18.13,1.5-.49,2.72-.99,3.65-1.49,1.43-.76,2.71-1.74,4-3.2.84-.95,1.19-2.01,1.24-3.01.01-.46-.09-.88-.28-1.25"/>
    <path class="cls-2" d="M140.1,36.12c.53-.27,1.18-.5,1.91-.6,5.68-.81,7.58-3.21,8.19-5.09.37-1.15.29-2.27.02-3.16-.01.08-.01.16-.02.24-.01.46-.09.95-.25,1.44-.6,1.87-2.52,4.12-8.19,5.09-1.55.27-2.2.93-2.35,1.46.03.01.07.02.1.05.27.08.48.3.59.57"/>
    <path class="cls-2" d="M148.48,36.93l-.13.52c-.07.31.01.62.2.84.16.16.37.27.61.28.06,0,.13,0,.19-.01h.06s.44-1.61.44-1.61l-.75.14c-.07.01-.14.01-.19.01-.17-.01-.32-.07-.44-.16"/>
    <path class="cls-2" d="M136.25,44.64c.36.13.76.21,1.19.22.79.04,1.57-.14,2.1-.31.33-.66.59-1.31.79-1.96-.08.08-.17.16-.28.21-.01.01-1.4.65-2.86.59-.43-.01-.83-.08-1.19-.21-.64,1.37-1.01,2.69-1.14,3.92,0,.05-.01.1-.01.14-.02.4.02.93.3,1.19.15-1.21.49-2.46,1.1-3.78"/>
    <path class="cls-2" d="M165.35,33.72c.37-.52.6-.97.69-1.36-.05,0-.08,0-.14.01-.74.14-1.59.74-2.54,1.79-.55.59-1.01,1.32-1.42,2.16.39-.18.75-.37,1.07-.55,1.03-.66,1.83-1.34,2.34-2.04"/>
    <path class="cls-2" d="M155.93,32.47c.11-.01.22,0,.33.04.13-.33.23-.6.31-.77.25-.54.52-1.03.81-1.44.07.18.17.36.29.52.23.3.52.54.86.69.14-.17.36-.52.74-1.28-.05.01-.1.01-.15.01-.67-.02-1.31-.36-1.7-.9-.12-.16-.23-.33-.3-.52-.28.42-.56.9-.81,1.45-.13.27-.38.89-.85,2.28l.34-.07s.08-.01.12-.01"/>
    <path class="cls-2" d="M143.25,48.23c.09.05.2.07.33.07h.01c1.12-.04,2.66-.71,3.41-2.06.99-1.76.89-3.71.79-3.89-.07.78-.43,1.63-1.04,2.42-.94,1.21-2.28,2.02-3.41,2.05-.14,0-.25-.02-.35-.06-.75,1.1-1.66,2.06-2.71,2.88-1.48,1.15-2.94,1.86-4.35,2.12-.43.07-.86.12-1.28.09-1-.03-1.85-.36-2.54-.97-.55-.47-.94-1.04-1.18-1.67.01,1.26.5,2.33,1.43,3.15.69.61,1.55.93,2.54.97.4.02.84-.02,1.28-.1,1.41-.25,2.87-.97,4.35-2.11,1.06-.83,1.98-1.8,2.73-2.89"/>
    <path class="cls-2" d="M156.8,35.68l-.45.08-.54.09-1.43.25h0s-1.63,5.88-1.63,5.88c-.71,2.55-3.82,8.93-4.56,10.65-.46.59-.94,1.11-1.41,1.52-1.02.9-2.06,1.44-3.09,1.64-.02,0-.13.01-.15.01-.18.05-.39.06-.59.05-1.02-.03-1.85-.63-2.26-1.49v.04c-.15,1.57.98,2.87,2.51,2.93.2.01.41-.01.58-.05.05,0,.1-.01.17-.01,1.02-.2,2.06-.75,3.08-1.64.48-.41.95-.93,1.4-1.54.26-.42.85-1.41,1.45-2.85,1.15-2.76,2.79-6.55,3.13-7.79l1.62-5.88,1.43-.25c.17-.03.31-.05.44-.08.31-.06.2-.03.31-.06.1-.01.14-.02.22-.03h.05s.44-1.59.44-1.59h0s-.7.12-.7.12Z"/>
    <path class="cls-2" d="M168.38,40.46s-.05-.01-.08-.03c-.5,1.06-2.37,4.3-6.79,5.14-.47.09-.91.13-1.32.12-1.06-.03-1.92-.41-2.54-1.13-.41-.46-.7-.97-.9-1.52.02,1.15.41,2.16,1.15,3,.62.7,1.49,1.08,2.54,1.12.41.02.86-.01,1.32-.1,5.19-.99,6.97-6.35,6.62-6.59"/>
    <path class="cls-2" d="M132.71,35.82c-.01.2-.02.4-.05.62-.08.95-.32,2.01-.77,3.21-.76,2.04-3.27,4.25-5.64,4.17-.39-.01-.76-.09-1.11-.22-.97-.35-1.65-1.05-2.01-2,0,.47.06.93.2,1.36.33,1,1.04,1.74,2.07,2.11.34.13.72.2,1.1.21,2.37.09,4.88-2.12,5.66-4.16.81-2.18.99-3.96.56-5.3"/>
    <path class="cls-2" d="M126.6,52.3c-1.79,1.36-2.99,1.91-4.95,2.27-.66.13-1.33.17-1.98.15-.91-.02-1.78-.2-2.61-.52-1.37-.51-2.41-1.41-3.09-2.68-.15-.28-.27-.56-.39-.86-.08-.18-.15-.36-.2-.54.1,1.04.37,2.01.84,2.88.68,1.27,1.71,2.16,3.09,2.68.83.31,1.71.48,2.61.52.65.02,1.32-.02,1.99-.15,1.95-.36,3.14-.91,4.94-2.27,2.05-1.57,3.26-5.55,2.86-5.76-.36.83-1.43,2.99-3.11,4.28"/>
    <path class="cls-2" d="M118.15,48.51c.07-1.7.49-3.46,1.25-5.27.57-1.35,1.96-3.96,3.89-5.79.03-.08.08-.17.12-.27.73-1.28,2.15-2.2,3.53-2.28.18-.01.37-.01.56.01.78.09,1.34.35,1.73.66-.61-1.01-2.11-1-2.44-.96-1.53.22-2.82.81-3.94,1.81-1.53,1.38-2.78,3.18-3.7,5.35-.66,1.55-1.07,3.07-1.2,4.55-.01.09-.01.18-.02.28-.02.77.05,1.43.23,1.98v-.08Z"/>
    <path class="cls-2" d="M136.44,33.14c.81-2.3,3.02-2.52,5-2.99,1.41-.33,2.64-1.59,1.6-3.3-.16,1.09-1.26,1.67-1.89,2.03-.76.44-1.95.68-2.74,1.05-1.41.67-1.95,1.6-2.14,3.19-.01.1.13.1.16.02M117.36,52.89c1.17.44,2.56.61,4.12.33,1.74-.32,2.82-.79,4.53-2.09,1.86-1.41,2.92-4.17,2.92-4.17-.92,1.38-1.9,2.46-2.94,3.24-1.04.78-2.21,1.28-3.52,1.52-1.72.31-3.1.01-4.13-.9-1.03-.91-1.51-2.31-1.44-4.18.07-1.82.52-3.7,1.33-5.62.99-2.32,2.31-4.22,3.97-5.7,1.29-1.16,2.77-1.82,4.45-2.06,1.98-.29,3.5.09,3.72,2.82.13,1.59-.57,3.04-1.49,4.31-1.03,1.41-2.99,1.64-3.8.42-.42-.63-.27-1.36.12-1.79.06.34.19.64.46.99.35.45.97.59,1.52.48.07-.01.13-.03.2-.04.67-.14,1.32-.78,1.56-1.42.6-1.61.12-2.87-1.62-3.07-1.04-.12-2.38.57-3.02,1.72-.95,1.7-.76,3.93,1.13,4.62,2.18.8,4.83-1.49,5.53-3.35,2.74-7.29-2.87-6.99-4.38-6.76-1.98.31-3.96,1.29-5.95,2.79-1.99,1.5-3.58,3.34-4.77,5.53-1.2,2.19-1.84,4.34-1.92,6.43-.05,1.38.21,2.6.79,3.68.58,1.08,1.46,1.84,2.63,2.28M158.83,36.21c-.92,1.63-1.41,3.16-1.47,4.57-.04,1.05.27,1.94.93,2.69.66.74,1.67,1,3.03.74,4.68-.9,6.2-4.85,6.2-4.85-1.26,1.18-2.21,1.96-2.84,2.36-.63.4-1.29.66-1.96.78-.85.16-1.56,0-2.12-.5-.56-.49-.83-1.15-.79-2,.01-.31.06-.7.13-1.18,1.92-.57,3.41-1.15,4.47-1.73,1.6-.87,2.83-1.84,3.68-2.93.64-.83.99-1.64,1.02-2.43.02-.55-.2-.99-.66-1.32-.46-.32-1.18-.4-2.17-.22-1.39.25-2.74.91-4.07,1.97-1.33,1.06-2.46,2.41-3.37,4.04M165.73,31.01c.45-.08.8-.02,1.04.18s.35.5.34.88c-.03.66-.34,1.4-.95,2.23-.61.83-1.49,1.61-2.67,2.33-.89.55-2.03,1.03-3.42,1.45.59-2.11,1.44-3.77,2.55-4.99,1.11-1.22,2.14-1.92,3.1-2.09M143.78,25.03c2.39-.37,3.08,2.47,1.89,4.25-1.41,2.1-3.58,2.17-6.34,2.98-2.54.74-3.9,3.94-.19,4.33.02,0,.03-.03.01-.04-3.73-1.23-.07-3.51,2.48-3.87,9.46-1.35,7.89-7.25,6.64-8.29-1.58-1.32-4-.78-4.62.37-.09.16-.02.31.13.28M151.79,41.36l1.8-6.5,2.04-.37.3-.98-2.08.38c.76-2.35,1.28-3.82,1.56-4.42.54-1.16,1.14-2.05,1.79-2.67.45-.43.95-.7,1.5-.83-.43.29-.71.76-.83,1.33-.19.92.71,1.71,1.57,1.53.84-.17,1.55-1.03,1.7-1.87.03-.11.05-.21.05-.33,0-.23-.05-.44-.17-.63-.12-.23-.32-.44-.62-.58-.08-.04-.16-.05-.24-.05-.35-.11-.77-.13-1.26-.04-.67.12-1.4.47-2.19,1.03-.79.57-1.54,1.33-2.26,2.31-.54.72-1.1,1.69-1.69,2.92-.45.92-.81,1.56-1.08,1.91-.27.35-.56.61-.87.78-.31.17-.86.33-1.64.47l-.23.97,2.44-.44-2.83,10.06c-1.39,5.12-2.87,6.77-3.58,7.37,0,0,0-.02,0-.02.1-1.04-.65-1.92-1.67-1.95-1.02-.04-1.92.78-2.02,1.82-.1,1.04.65,1.92,1.67,1.95.15,0,.3-.01.44-.04.04,0,.07,0,.11-.01.86-.16,1.73-.63,2.62-1.41,1.16-1,2.28-2.65,3.35-4.94.74-1.63,1.52-3.88,2.31-6.73M144.01,41.55c.47-.09.95-.14,1.19.11.45.45.32,2.32-1.9,3.79,1.64-.05,3.84-2.47,3.47-4.17-.25-1.13-1.46-1.73-2.59-1.59-.41-1.44-1.92-1.6-2.52-1.51.18.37.27.85.24,1.44-.08,2.05-.74,4.17-1.98,6.36-1.24,2.19-2.52,3.41-3.85,3.65-.67.12-1.23-.01-1.66-.42-.44-.41-.64-1.06-.6-1.95.07-1.84.65-3.78,1.73-5.82,1.5,1.24,4.1.07,4.1.07-3.25-.04-2.56-2.43-2.56-2.43-.74.18-4.9,2.28-5.53,7.67-.15,1.3.31,2.3,1.09,2.98.78.68,1.81.9,3.09.67,1.26-.23,2.56-.87,3.92-1.93,1.36-1.06,2.44-2.35,3.24-3.88.54-1.04.9-2.06,1.1-3.05"/>
  </g>
  <g>
    <polygon class="cls-2" points="47.02 77.88 56.27 61.68 56.27 82.73 53.05 88.38 47.05 98.89 41.01 88.39 37.46 82.2 37.12 81.61 33.26 88.38 27.26 98.89 21.22 88.39 17.67 82.2 11.91 72.18 11.91 72.17 2.19 55.22 14.22 55.22 18.52 62.7 24.28 72.72 27.23 77.88 31.1 71.11 21.99 55.22 34.01 55.22 37.1 60.6 38.31 62.7 43.12 71.09 44.07 72.72 47.02 77.88"/>
    <path class="cls-1" d="M47.05,101.43l-9.93-17.28-9.86,17.28L0,53.94h14.94l12.29,21.4,2.41-4.22-9.85-17.18h14.94l12.29,21.4,10.51-18.4v26.15l-10.48,18.36ZM13.17,71.83l14.08,24.51,9.87-17.28,9.93,17.28,7.97-13.96v-15.95l-7.99,13.99-13.74-23.92h-9.11l8.38,14.6-5.32,9.32-13.74-23.92H4.39l8.78,15.33Z"/>
  </g>
  <path class="cls-2" d="M149.33,105.55c-5.33,0-9.68-4.41-9.68-9.83s4.34-9.84,9.68-9.84,9.68,4.41,9.68,9.84-4.34,9.83-9.68,9.83ZM149.33,87.59c-4.42,0-8.01,3.65-8.01,8.13s3.59,8.12,8.01,8.12,8.01-3.64,8.01-8.12-3.59-8.13-8.01-8.13Z"/>
  <path class="cls-2" d="M132.49,115.78c-4.24,0-7.7-3.54-7.7-7.89s3.45-7.89,7.7-7.89,7.76,3.54,7.76,7.89-3.48,7.89-7.76,7.89ZM132.49,101.71c-3.33,0-6.03,2.77-6.03,6.18s2.71,6.18,6.03,6.18,6.09-2.77,6.09-6.18-2.73-6.18-6.09-6.18Z"/>
  <path class="cls-2" d="M112.38,119.63c-3.43,0-6.21-2.84-6.21-6.32s2.79-6.32,6.21-6.32,6.21,2.84,6.21,6.32-2.79,6.32-6.21,6.32ZM112.38,108.7c-2.51,0-4.55,2.07-4.55,4.61s2.04,4.61,4.55,4.61,4.55-2.07,4.55-4.61-2.04-4.61-4.55-4.61Z"/>
  <path class="cls-2" d="M96.24,120.3c-2.82,0-5.04-2.25-5.04-5.13s2.26-5.13,5.04-5.13,5.04,2.35,5.04,5.13-2.26,5.13-5.04,5.13ZM96.24,111.76c-1.86,0-3.37,1.53-3.37,3.42s1.48,3.42,3.37,3.42,3.37-1.53,3.37-3.42-1.54-3.42-3.37-3.42Z"/>
  <path class="cls-2" d="M83.41,119.14c-2.15,0-3.9-1.78-3.9-3.97s1.75-3.97,3.9-3.97,3.9,1.78,3.9,3.97-1.75,3.97-3.9,3.97ZM83.41,112.48c-1.44,0-2.65,1.23-2.65,2.69s1.22,2.69,2.65,2.69,2.65-1.23,2.65-2.69-1.22-2.69-2.65-2.69Z"/>
  <path class="cls-2" d="M73.32,117.38c-1.77,0-3.16-1.41-3.16-3.22s1.42-3.28,3.16-3.28,3.16,1.47,3.16,3.28-1.39,3.22-3.16,3.22ZM73.32,112.17c-1.05,0-1.91.89-1.91,1.99s.84,1.94,1.91,1.94,1.91-.85,1.91-1.94-.86-1.99-1.91-1.99Z"/>
  <path class="cls-2" d="M66.15,115.44c-1.5,0-2.73-1.27-2.73-2.84s1.25-2.78,2.73-2.78,2.73,1.27,2.73,2.78-1.22,2.84-2.73,2.84ZM66.15,111.1c-.8,0-1.48.68-1.48,1.49,0,.86.66,1.56,1.48,1.56s1.48-.7,1.48-1.56c0-.81-.68-1.49-1.48-1.49Z"/>
  <rect class="cls-2" x="26.76" y="100.14" width="1.32" height="7.06"/>
  <path class="cls-2" d="M33.73,106.55c-.27.24-.57.43-.93.57-.35.14-.73.21-1.14.21s-.78-.07-1.14-.21c-.35-.14-.66-.33-.93-.57-.26-.24-.47-.52-.62-.85-.15-.32-.23-.67-.23-1.03s.07-.72.23-1.04c.15-.32.36-.61.62-.85.26-.24.57-.43.93-.57.35-.14.73-.21,1.14-.21s.78.07,1.14.21c.35.14.66.33.93.57l-.94.86c-.31-.28-.69-.42-1.13-.42s-.8.14-1.13.42c-.31.28-.46.63-.46,1.03s.15.74.46,1.02c.15.14.33.25.52.32.19.07.39.11.61.11.45,0,.82-.14,1.13-.43l.94.86Z"/>
  <path class="cls-2" d="M38.08,105.28h-2.89c.07.15.18.29.32.41.15.14.33.25.52.32.19.07.39.11.61.11.3,0,.57-.07.81-.19l1.38.5c-.26.28-.58.51-.96.66-.38.16-.78.24-1.23.24-.4,0-.78-.07-1.14-.21-.35-.14-.66-.33-.93-.57-.26-.24-.47-.52-.62-.85-.15-.32-.23-.67-.23-1.03s.08-.72.23-1.04c.15-.32.36-.61.62-.85.26-.24.57-.43.93-.57.35-.14.73-.21,1.14-.21s.78.07,1.14.21c.35.14.66.33.93.57.26.24.47.53.62.85.15.32.23.67.23,1.04,0,.21-.02.42-.08.61h-1.39ZM36.63,103.22c-.43,0-.8.14-1.13.42-.14.13-.25.27-.32.42h2.89c-.07-.15-.18-.29-.32-.42-.31-.28-.68-.42-1.13-.42"/>
  <path class="cls-2" d="M45.81,100.12v7.08h-1.32v-2.52c0-.41-.16-.76-.46-1.03-.31-.28-.68-.42-1.11-.42s-.82.14-1.13.42c-.31.28-.46.63-.46,1.03s.15.74.46,1.02c.15.14.32.25.51.32.19.07.4.11.61.11s.41-.04.58-.1l.47,1.08c-.34.16-.73.23-1.17.23-.4,0-.78-.07-1.12-.21-.34-.14-.64-.33-.89-.57-.25-.24-.45-.52-.59-.85-.14-.32-.21-.67-.21-1.03s.07-.72.21-1.04c.14-.32.33-.61.59-.85.25-.24.55-.43.89-.57.34-.14.71-.21,1.12-.21.35,0,.67.05.95.15.28.1.53.23.74.38v-2.42h1.32Z"/>
  <path class="cls-2" d="M56.3,103.42c.29.19.53.43.71.73.18.29.26.62.26.97v.02c0,.28-.06.55-.18.8-.12.25-.28.47-.49.66-.21.19-.45.33-.72.44-.27.11-.56.16-.87.16h-2.2l.53-1.21h1.67c.26,0,.48-.08.66-.25.18-.16.27-.36.27-.6v-.02c0-.23-.09-.44-.27-.6-.18-.16-.4-.25-.66-.25h-2.7v2.93h-1.32v-7.07h3.49c.31,0,.6.05.88.16.28.11.52.26.72.45.2.19.36.41.48.66.12.25.18.52.18.8v.02c0,.23-.04.45-.12.65-.08.2-.18.39-.32.56M55.41,102.19c0-.23-.09-.44-.27-.6-.18-.16-.4-.25-.66-.25h-2.16v1.72h2.16c.26,0,.48-.09.66-.25.18-.16.27-.36.27-.6v-.02Z"/>
  <path class="cls-2" d="M62.19,105.28h-2.89c.07.15.18.29.32.41.15.14.33.25.52.32.19.07.39.11.61.11.3,0,.57-.07.8-.19l1.38.5c-.26.28-.59.51-.96.66-.38.16-.78.24-1.22.24-.41,0-.78-.07-1.14-.21-.35-.14-.66-.33-.93-.57-.26-.24-.47-.52-.62-.85-.15-.32-.23-.67-.23-1.03s.08-.72.23-1.04c.15-.32.36-.61.62-.85.26-.24.57-.43.93-.57.35-.14.73-.21,1.14-.21s.78.07,1.14.21c.35.14.66.33.93.57.26.24.47.53.62.85.15.32.23.67.23,1.04,0,.21-.03.42-.08.61h-1.39ZM60.74,103.22c-.43,0-.8.14-1.13.42-.14.13-.25.27-.32.42h2.89c-.07-.15-.18-.29-.32-.42-.31-.28-.68-.42-1.12-.42"/>
  <polygon class="cls-2" points="69.91 102.15 67.35 107.2 65.89 107.2 63.33 102.15 64.79 102.15 66.62 105.76 68.46 102.15 69.91 102.15"/>
  <path class="cls-2" d="M73.96,105.28h-2.89c.07.15.18.29.32.41.16.14.33.25.52.32.19.07.39.11.61.11.3,0,.57-.07.81-.19l1.38.5c-.27.28-.59.51-.96.66-.37.16-.78.24-1.22.24-.41,0-.78-.07-1.14-.21-.35-.14-.66-.33-.93-.57-.26-.24-.47-.52-.62-.85-.15-.32-.23-.67-.23-1.03s.08-.72.23-1.04c.15-.32.36-.61.62-.85.26-.24.57-.43.93-.57.35-.14.73-.21,1.14-.21s.78.07,1.14.21c.35.14.66.33.93.57.27.24.47.53.62.85.15.32.23.67.23,1.04,0,.21-.03.42-.08.61h-1.39ZM72.52,103.22c-.43,0-.8.14-1.13.42-.14.13-.25.27-.32.42h2.89c-.07-.15-.18-.29-.32-.42-.31-.28-.68-.42-1.13-.42"/>
  <path class="cls-2" d="M78.07,102.15c.26-.1.56-.15.89-.15v1.21c-.44,0-.82.14-1.13.43-.31.3-.46.64-.46,1.03v2.54h-1.32v-5.06h1.32v.39c.21-.15.44-.28.7-.38"/>
  <path class="cls-2" d="M84.88,102.14v5.06h-1.32v-2.53c0-.41-.15-.75-.46-1.03-.31-.28-.68-.42-1.13-.42-.21,0-.42.04-.61.11-.2.07-.37.18-.51.31-.31.28-.46.63-.46,1.03s.15.74.46,1.02c.15.14.32.25.51.32.19.07.4.11.61.11s.42-.04.6-.1l.47,1.08c-.34.16-.73.23-1.18.23-.4,0-.78-.07-1.12-.21-.34-.14-.64-.33-.89-.57-.25-.24-.45-.53-.59-.85-.14-.32-.21-.67-.21-1.03s.07-.72.21-1.04c.14-.32.33-.61.59-.85.25-.24.55-.43.89-.57.34-.14.72-.21,1.12-.21.36,0,.68.05.96.15.28.1.53.23.74.38v-.4h1.32Z"/>
  <path class="cls-2" d="M91.32,106.69c0,.36-.08.71-.23,1.03-.15.32-.36.61-.62.85-.26.24-.57.43-.93.58-.35.14-.73.21-1.14.21-.33,0-.64-.05-.94-.14-.29-.09-.57-.23-.82-.4l.96-.87c.24.13.5.2.79.2.45,0,.82-.14,1.13-.43.31-.28.46-.62.46-1.02v-2.03c0-.39-.15-.73-.46-1.03-.31-.28-.68-.43-1.13-.43s-.8.14-1.13.43c-.31.3-.46.64-.46,1.03s.15.75.46,1.03c.32.28.7.43,1.13.43.22,0,.42-.04.6-.1l.5,1.13c-.33.12-.69.18-1.07.18h-.02c-.4,0-.77-.07-1.13-.21-.35-.14-.66-.33-.93-.57-.26-.24-.47-.52-.63-.85-.15-.32-.23-.67-.23-1.04s.07-.72.2-1.04c.13-.32.32-.61.56-.85.24-.24.53-.43.86-.57.33-.14.7-.21,1.1-.21s.72.05,1.02.16c.29.11.55.23.77.39v-.39h1.32v4.55Z"/>
  <path class="cls-2" d="M96.17,105.28h-2.89c.07.15.18.29.32.41.15.14.33.25.52.32.19.07.39.11.61.11.3,0,.57-.07.8-.19l1.38.5c-.26.28-.58.51-.96.66-.38.16-.78.24-1.22.24-.41,0-.78-.07-1.14-.21-.35-.14-.66-.33-.93-.57-.26-.24-.47-.52-.62-.85-.15-.32-.23-.67-.23-1.03s.08-.72.23-1.04c.15-.32.36-.61.62-.85.26-.24.57-.43.93-.57.35-.14.73-.21,1.14-.21s.78.07,1.14.21c.35.14.66.33.93.57.26.24.47.53.62.85.15.32.23.67.23,1.04,0,.21-.03.42-.08.61h-1.39ZM94.73,103.22c-.43,0-.8.14-1.13.42-.14.13-.25.27-.32.42h2.89c-.07-.15-.18-.29-.32-.42-.31-.28-.68-.42-1.13-.42"/>
  <path class="cls-2" d="M100.15,104.07c.09.02.24.07.44.14.21.07.42.18.63.31.22.13.41.29.57.49.16.19.24.43.24.7,0,.23-.04.45-.13.64-.08.2-.21.37-.37.51-.16.15-.36.26-.6.34-.24.08-.5.12-.79.12-.45,0-.87-.07-1.25-.22-.39-.15-.7-.33-.93-.55l.92-.84c.19.21.4.34.61.41.22.06.4.09.55.09.23,0,.4-.04.51-.12.11-.08.17-.18.17-.29,0-.08-.04-.15-.11-.21-.07-.06-.16-.11-.26-.15-.1-.04-.2-.07-.3-.1-.1-.02-.19-.04-.25-.06-.09-.03-.24-.08-.45-.14-.21-.07-.42-.16-.64-.29-.22-.13-.41-.29-.57-.48-.16-.2-.24-.43-.24-.71s.05-.53.16-.73c.11-.2.25-.37.43-.51.18-.13.38-.23.61-.3.23-.07.46-.1.71-.1.38,0,.69.04.96.12.26.08.48.17.64.26.19.12.35.24.49.39l-.93.85c-.15-.17-.31-.3-.49-.38-.18-.08-.36-.12-.56-.12-.16,0-.31.04-.46.1-.15.07-.23.17-.23.32,0,.08.03.15.1.21.07.06.15.1.24.14.1.04.2.07.3.09.11.03.2.05.29.07"/>
</svg>